Coordinates
version=1
nRows=29
nColumns=22
inDegrees=yes

Units are S.I. units (second, meters, Newtons, ...)
If the header above contains a line with 'inDegrees', this indicates whether rotational values are in degrees (yes) or radians (no).

endheader
time	pelvis_tilt	pelvis_list	pelvis_rotation	pelvis_tx	pelvis_ty	pelvis_tz	hip_flexion_r	hip_adduction_r	hip_rotation_r	knee_angle_r	ankle_angle_r	subtalar_angle_r	hip_flexion_l	hip_adduction_l	hip_rotation_l	knee_angle_l	ankle_angle_l	subtalar_angle_l	lumbar_extension	lumbar_bending	lumbar_rotation
      4.58000000	      1.78255523	      0.52816681	     74.43206293	      0.41653572	      0.93326959	     -0.51829384	     24.88539650	      0.57610482	      5.70004004	    -12.76770171	      9.18070874	      6.91389179	     -0.15772776	      6.39831713	     18.04629525	    -25.36610165	     17.74213051	    -10.98500367	     -5.80266334	      0.79098531	     -4.23386140
      4.59000000	      1.74929762	      0.55084681	     74.80747548	      0.41983647	      0.93267740	     -0.52450532	     24.89635438	      0.61519239	      5.41662629	    -12.99550021	      9.09052261	      6.71266702	     -0.69078165	      6.26882982	     18.28784672	    -25.25966489	     17.94430454	    -10.97300339	     -5.77938918	      0.82394162	     -4.31587004
      4.60000000	      1.72406831	      0.61184529	     75.17185277	      0.42319599	      0.93218004	     -0.53082845	     24.84907126	      0.66548708	      5.17738081	    -13.37949959	      8.97070482	      6.42053667	     -1.29222510	      6.12685623	     18.50351164	    -25.11377653	     18.10027089	    -10.95115258	     -5.79560981	      0.86093328	     -4.39647688
      4.61000000	      1.70677855	      0.68854636	     75.49228064	      0.42668595	      0.93173768	     -0.53722714	     24.74864354	      0.75434074	      5.06241701	    -13.85651057	      8.75352356	      5.79574030	     -1.93338844	      5.96337915	     18.65583743	    -24.93294036	     18.20186363	    -10.91124845	     -5.82750764	      0.90128579	     -4.42480843
      4.62000000	      1.66419986	      0.72636846	     75.84563650	      0.43011277	      0.93121961	     -0.54366139	     24.67880608	      0.81704183	      4.93732224	    -14.42667003	      8.53370604	      5.29087240	     -2.50879326	      5.81965005	     18.84686595	    -24.78870958	     18.27833539	    -10.90043870	     -5.81139646	      0.93667321	     -4.51139484
      4.63000000	      1.59105899	      0.72473459	     76.19163643	      0.43352112	      0.93063023	     -0.55008753	     24.63785445	      0.86612127	      4.85887830	    -15.03993447	      8.24278588	      4.71530686	     -3.01163992	      5.70149504	     19.02489797	    -24.68208645	     18.33523876	    -10.88752426	     -5.74977846	      0.95842066	     -4.59417123
      4.64000000	      1.49104506	      0.66654938	     76.53017688	      0.43690760	      0.92997611	     -0.55648743	     24.63557771	      0.90657179	      4.82323301	    -15.64323346	      7.84210371	      4.06460996	     -3.41591364	      5.60388639	     19.18947891	    -24.62779965	     18.36845876	    -10.85804805	     -5.62412845	      0.97455439	     -4.67960424
      4.65000000	      1.39467226	      0.54128095	     76.86379210	      0.44029140	      0.92929201	     -0.56285207	     24.67495562	      0.96711146	      4.81356505	    -16.20479473	      7.33872214	      3.42790072	     -3.71000095	      5.49492986	     19.35856296	    -24.64295964	     18.35845704	    -10.78934497	     -5.43031871	      1.01654929	     -4.75408150
      4.66000000	      1.31201959	      0.36776489	     77.17511730	      0.44370910	      0.92865131	     -0.56918132	     24.74261050	      1.05880038	      4.84358755	    -16.71309208	      6.74253460	      2.81819361	     -3.91558916	      5.36702468	     19.50001737	    -24.72424883	     18.31248674	    -10.66311676	     -5.19044557	      1.08783924	     -4.80588160
      4.67000000	      1.28507504	      0.13847651	     77.47597136	      0.44713849	      0.92809638	     -0.57550545	     24.84149195	      1.21299513	      4.85783450	    -17.17125347	      6.09709455	      2.34527924	     -4.02797255	      5.18196626	     19.64973208	    -24.89183010	     18.22284438	    -10.47232385	     -4.90036602	      1.24179831	     -4.81764083
      4.68000000	      1.29686357	     -0.11277414	     77.74818442	      0.45062874	      0.92769832	     -0.58181243	     24.94707884	      1.41610632	      4.90176357	    -17.59222437	      5.42327931	      1.97812140	     -4.07553011	      4.96070388	     19.75991689	    -25.14030978	     18.07876842	    -10.18917325	     -4.59543422	      1.44343125	     -4.80618366
      4.69000000	      1.34246079	     -0.36998607	     77.99106609	      0.45417344	      0.92748795	     -0.58811871	     25.05322910	      1.65666844	      4.94961177	    -18.00662583	      4.77355680	      1.73999170	     -4.07245941	      4.71393487	     19.82692413	    -25.46939087	     17.86298498	     -9.77383754	     -4.29017313	      1.68430337	     -4.76650699
      4.70000000	      1.45425437	     -0.62787063	     78.20075227	      0.45778777	      0.92747294	     -0.59445081	     25.13584402	      1.96290235	      4.97288536	    -18.40962411	      4.19193744	      1.72328576	     -4.02505387	      4.41060348	     19.83825480	    -25.89680223	     17.59711828	     -9.31217221	     -3.99314155	      1.99953948	     -4.67314809
      4.71000000	      1.58328083	     -0.86151572	     78.37518213	      0.46145963	      0.92765902	     -0.60078439	     25.18992636	      2.28103464	      4.97052543	    -18.82601876	      3.70487343	      1.84883337	     -3.94020425	      4.10658425	     19.77657439	    -26.42531420	     17.25285781	     -8.70698232	     -3.72803685	      2.32531117	     -4.54973236
      4.72000000	      1.70800229	     -1.05469520	     78.52216625	      0.46512632	      0.92803636	     -0.60711599	     25.20706906	      2.57663683	      4.92994611	    -19.26592291	      3.35633781	      2.12763969	     -3.82297015	      3.82580568	     19.61862641	    -27.05758598	     16.82737780	     -7.89845196	     -3.51014196	      2.64406751	     -4.42653720
      4.73000000	      1.83574655	     -1.20544087	     78.64173311	      0.46881870	      0.92859008	     -0.61342013	     25.15980603	      2.85916203	      4.84332047	    -19.68227203	      3.12937511	      2.47110048	     -3.66961648	      3.56131829	     19.38089100	    -27.80932681	     16.31557343	     -7.01454642	     -3.34775235	      2.94997558	     -4.26196311
      4.74000000	      1.94846322	     -1.31803066	     78.74437098	      0.47249208	      0.92928402	     -0.61968017	     25.06200406	      3.10840862	      4.71827966	    -20.08325218	      3.02129531	      2.82445341	     -3.46870583	      3.32555037	     19.05668688	    -28.67328843	     15.70450820	     -5.99036564	     -3.23375088	      3.23099435	     -4.09159262
      4.75000000	      2.04604014	     -1.40154416	     78.83800646	      0.47613625	      0.93007906	     -0.62585299	     24.90281984	      3.32709491	      4.56703993	    -20.42345315	      2.98475612	      3.11371003	     -3.18245494	      3.11050318	     18.61102933	    -29.68638662	     14.99833943	     -4.86834524	     -3.16322958	      3.48441803	     -3.91445261
      4.76000000	      2.11697741	     -1.44088399	     78.93630877	      0.47974157	      0.93096488	     -0.63195972	     24.67856497	      3.49549207	      4.34366840	    -20.72614655	      3.11712458	      3.35555753	     -2.84048050	      2.92579389	     18.09079895	    -30.81900274	     14.21017590	     -3.52796221	     -3.14746406	      3.68759415	     -3.73439166
      4.77000000	      2.17559601	     -1.46417525	     79.04296604	      0.48328969	      0.93189278	     -0.63794049	     24.39705069	      3.64114606	      4.10535185	    -20.94378855	      3.26864358	      3.49862170	     -2.38715380	      2.73939443	     17.43940556	    -32.10130286	     13.32505210	     -2.07997601	     -3.16241333	      3.86660633	     -3.55811031
      4.78000000	      2.22602483	     -1.45857785	     79.17072281	      0.48676487	      0.93285428	     -0.64378079	     24.05774394	      3.76311958	      3.82780463	    -21.10189427	      3.48096465	      3.55725852	     -1.84178477	      2.54485135	     16.70025471	    -33.52079733	     12.36684224	     -0.45152464	     -3.22448245	      4.02009020	     -3.39245516
      4.79000000	      2.26283850	     -1.44717609	     79.31280449	      0.49017788	      0.93379883	     -0.64946452	     23.67705184	      3.86328024	      3.51565207	    -21.17489828	      3.70413735	      3.52784132	     -1.17165764	      2.33060704	     15.83877311	    -35.07648716	     11.36117610	      1.29498715	     -3.30362522	      4.14266825	     -3.21749348
      4.80000000	      2.30318639	     -1.41865381	     79.47722462	      0.49350991	      0.93472642	     -0.65497989	     23.25271506	      3.95691692	      3.17440983	    -21.18719406	      3.93665015	      3.42127537	     -0.40253804	      2.07670730	     14.89471911	    -36.74754284	     10.33374502	      3.13908230	     -3.41675449	      4.25406290	     -3.04068935
      4.81000000	      2.35528510	     -1.37555390	     79.66376633	      0.49679986	      0.93562089	     -0.66031352	     22.78779940	      4.05922725	      2.81393482	    -21.13943132	      4.16866462	      3.24905858	      0.45796156	      1.76443317	     13.88384097	    -38.51328207	      9.34763657	      5.06392057	     -3.56085166	      4.35476898	     -2.86287274
      4.82000000	      2.43963318	     -1.32862410	     79.86354680	      0.50004441	      0.93644977	     -0.66546088	     22.30716887	      4.19661260	      2.44308133	    -21.05915045	      4.36667190	      3.04665803	      1.40605048	      1.36497126	     12.80757079	    -40.35150220	      8.45366466	      6.93630616	     -3.72576079	      4.47687680	     -2.66567658
      4.83000000	      2.53873904	     -1.26436615	     80.08508524	      0.50326626	      0.93723790	     -0.67047055	     21.78385999	      4.34863466	      2.06435948	    -20.92427568	      4.58710331	      2.82259270	      2.39809736	      0.89165652	     11.69441480	    -42.19865679	      7.71113346	      8.76400492	     -3.91083801	      4.58974232	     -2.46666058
      4.84000000	      2.68440529	     -1.20638001	     80.30987643	      0.50648706	      0.93792265	     -0.67526984	     21.28030936	      4.56318415	      1.70257170	    -20.80121606	      4.75903714	      2.62547266	      3.45504850	      0.30546691	     10.53615588	    -44.05393408	      7.16168280	     10.30945358	     -4.10727445	      4.73651051	     -2.24589354
      4.85000000	      2.86324387	     -1.14265821	     80.53859666	      0.50970247	      0.93854186	     -0.67989866	     20.77716107	      4.82297055	      1.36733603	    -20.67853790	      4.91479958	      2.45555170	      4.53510548	     -0.37398390	      9.35960511	    -45.85728388	      6.79104959	     11.47961467	     -4.31637292	      4.90030161	     -2.01291782
      4.86000000	      3.06283309	     -1.07122956	     80.76400097	      0.51290386	      0.93911270	     -0.68437529	     20.27795930	      5.11574605	      1.07362429	    -20.56484119	      5.07515895	      2.30432956	      5.61524974	     -1.12503902	      8.18429933	    -47.56632321	      6.57464897	     12.18528697	     -4.53672581	      5.07002427	     -1.76896883
